<svg id="SvgjsSvg1001" width="288" height="288" xmlns="http://www.w3.org/2000/svg" version="1.1" xmlns:xlink="http://www.w3.org/1999/xlink" xmlns:svgjs="http://svgjs.com/svgjs"><defs id="SvgjsDefs1002"></defs><g id="SvgjsG1008"><svg xmlns="http://www.w3.org/2000/svg" width="288" height="288" version="1.0" viewBox="0 0 360 56"><g transform="matrix(.1 0 0 -.1 0 56)" fill="#ffffff" class="color000 svgShape"><path d="M83 550c-45-18-50-59-11-109 10-13 18-34 18-47 0-21-5-24-34-24-45 0-55-17-19-31 51-19 113 12 113 58 0 13-12 40-26 59-30 38-26 64 10 64 32 0 42 26 13 34-28 7-37 7-64-4zM424 523c-3-21-12-69-20-106-18-88-18-87 10-87 20 0 25 6 31 40 9 50 19 51 33 1 11-33 15-38 37-33 30 5 29 3 9 46-16 33-16 35 5 64 17 24 18 31 7 35-9 4-28-9-47-31l-32-36 6 39c4 22 9 55 13 73 6 29 4 32-19 32-22 0-27-6-33-37zM1356 538c-8-35-36-194-36-201 0-4 11-7 25-7 19 0 26 7 31 28 12 54 16 62 28 62 7 0 17-19 22-42 9-43 27-56 53-39 13 8 12 15-1 50-16 41-16 42 8 66 53 53 18 105-73 105-46 0-53-3-57-22zm100-33c8-20-13-45-37-45-13 0-19 7-19 23 0 13 3 27 7 30 12 13 44 7 49-8zM1746 473c-9-49-19-100-22-115-5-25-3-28 20-28 21 0 26 6 31 38 11 62 26 92 47 92 21 0 21-5 2-102-5-25-2-28 19-28 28 0 32 11 43 103 8 66-5 79-57 53l-31-16 7 45c6 43 5 45-18 45-23 0-25-6-41-87zM1959 558c0-2-11-53-23-115l-22-112 60 3c34 2 64 4 69 5 16 2 47 67 47 98 0 55-26 69-88 46-7-3-10 1-8 8 18 58 17 69-9 69-14 0-25-1-26-2zm71-127c0-42-9-61-30-61-21 0-32 23-23 48 18 49 53 58 53 13zM2512 548c-17-17-15-35 5-42 21-8 48 17 40 38-8 19-28 21-45 4zM237 489c-25-15-47-63-47-103 0-45 29-64 68-46 19 8 28 8 30 1 3-9 52-17 52-8 0 9 22 125 27 141 5 17 1 18-31 13-19-3-38-1-41 4-8 12-35 11-58-2zm68-39c3-5-1-25-9-45-19-45-52-46-49-1 3 44 40 74 58 46zM627 489c-25-15-47-63-47-103 0-45 29-64 68-46 19 8 28 8 30 1 3-9 52-17 52-8 0 9 22 125 27 141 5 17 1 18-31 13-19-3-38-1-41 4-8 12-35 11-58-2zm68-39c3-5-1-25-9-45-19-45-52-46-49-1 3 44 40 74 58 46zM806 478c-14-65-26-130-26-138 0-6 11-10 24-10 21 0 25 7 37 58 12 49 18 58 39 61 26 3 40 17 40 39 0 17-20 15-42-5-17-15-18-15-18 0 0 27-49 22-54-5zM1043 447l-28-52-3 48c-3 43-5 47-28 47l-26 0 7-74c7-67 5-78-15-105-21-31-20-51 3-51 7 0 41 49 77 107 79 130 74 119 55 126-11 5-23-8-42-46zM1161 473c-41-36-51-89-24-122 18-22 23-23 51-13 21 7 32 7 32 1 0-6 12-9 27-7 25 3 29 9 40 63 19 92 18 96-19 94-18 0-43 2-54 6-16 5-30-1-53-22zm79-33c0-32-22-70-42-70-21 0-25 38-8 71 14 25 50 25 50-1zM1604 490c-57-23-82-102-44-140 23-23 35-24 79-9 41 15 40 29-4 29-47 0-48 27-1 36 43 7 70 35 62 62-9 29-51 39-92 22zm54-37c-2-11-14-19-31-21-29-4-35 6-15 26 19 19 50 15 46-5zM2184 490c-57-23-82-102-44-140 23-23 35-24 79-9 41 15 40 29-4 29-47 0-48 27-1 36 43 7 70 35 62 62-9 29-51 39-92 22zm54-37c-2-11-14-19-31-21-29-4-35 6-15 26 19 19 50 15 46-5zM2326 478c-14-65-26-130-26-138 0-6 11-10 24-10 21 0 25 7 37 58 12 49 18 58 39 61 26 3 40 17 40 39 0 17-20 15-42-5-17-15-18-15-18 0 0 27-49 22-54-5zM2668 484c-18-9-28-11-28-4 0 6-12 10-27 8-25-3-28-8-39-68-17-89-17-90 10-90 21 0 26 7 35 52 13 57 26 78 48 78 12 0 14-7 10-27-21-108-21-103 7-103 20 0 27 6 31 28 4 15 9 38 11 52 7 31 22 50 42 50 14 0 13-37-5-107-4-19-1-23 21-23 18 0 27 6 31 23 23 104 25 120 14 133-15 18-27 18-63-1-27-14-31-14-38 0-11 19-25 19-60-1zM3020 493c-8-3-27-17-42-31-21-19-28-35-28-64 0-49 33-73 85-64 42 8 47 33 8 38-54 6-32 88 22 88 13 0 25 6 28 14 9 22-34 33-73 19zM3185 491c-59-25-80-107-36-142 81-66 200 53 126 126-24 25-54 30-90 16zm51-36c10-24-6-85-22-92-21-8-28 3-27 43 2 51 36 85 49 49zM3422 484c-12-8-22-10-22-5 0 6-13 11-28 11-27 0-29-3-40-64-17-93-17-98 15-94 25 3 29 9 38 55 5 29 15 57 22 64 21 21 31 1 22-43-14-72-12-78 20-78 27 0 29 3 35 52 8 56 20 78 43 78 11 0 13-7 10-22-4-13-9-42-13-65-6-43-6-43 23-43 30 0 30 1 43 76 10 63 10 78-2 85-19 13-41 11-65-6-18-13-22-13-33 0-16 19-40 19-68-1zM2481 421c-15-92-15-91 14-91 14 0 25 3 25 8 0 4 6 40 14 80l14 72-28 0c-26 0-28-3-39-69zM2854 365c-8-20 4-35 26-35 23 0 32 13 24 34-8 20-43 21-50 1zM2000 220c-6-11-25-27-43-34-25-11-27-15-12-15 18-1 20-6 17-36-3-28-1-35 13-35 14 0 15 3 6 14-14 17 5 66 26 66 8 0 11 4 8 10-3 5-1 19 5 30 7 13 7 20 1 20-6 0-15-9-21-20zM2904 205c-15-38-19-105-5-105 4 0 6 11 4 24-3 13 4 45 15 70 12 25 16 46 11 46-6 0-17-16-25-35zM2350 220c0-5 5-10 10-10 6 0 10 5 10 10 0 6-4 10-10 10-5 0-10-4-10-10zM2860 220c0-5 5-10 10-10 6 0 10 5 10 10 0 6-4 10-10 10-5 0-10-4-10-10zM2190 180c-11-21-20-50-19-62l0-23 11 23c12 24 23 28 33 12 3-5 16-10 28-9l22 0-21 9c-36 14-37 28-3 45 17 9 29 19 26 22-3 2-14 0-25-6-29-16-34-14-22 9 7 13 7 20 1 20-6 0-20-18-31-40zM2762 200c-5-13-23-28-42-34-18-6-39-21-48-33-13-21-13-23 3-29 10-4 26-2 36 4 25 16 29 15 29-5 0-28 10-8 25 52 15 58 13 89-3 45zm-22-47c0-12-33-43-47-43-20 0-16 17 9 34 24 17 38 20 38 9zM2310 144c-16-48-5-55 14-9 19 44 19 45 7 45-5 0-15-16-21-36zM2397 173c-8-14-37-116-37-131 0-29 15 0 30 56 10 38 21 58 33 60 24 5 22-25-4-38-11-7-18-14-15-17 10-10 56 27 56 46 0 25-51 44-63 24zM2820 144c-16-48-5-55 14-9 19 44 19 45 7 45-5 0-15-16-21-36zM2970 154c-18-45-10-60 10-20 23 46 23 46 10 46-6 0-15-12-20-26zM3174 155c-14-14-24-31-21-38 12-36 91-3 85 36-4 31-33 32-64 2zm42-31c-23-16-46-19-46-5 0 6 10 17 22 25 30 21 52 2 24-20zM3273 143c-15-48-8-54 20-21 12 14 31 31 42 38 18 10 17 11-7 5-16-3-28-1-28 5 0 23-16 7-27-27zM2073 148c-37-42-36-45 22-44 49 0 53 2 32 13-12 7-31 9-42 6-18-5-18-4-6 11 8 9 20 15 28 12 7-3 13 1 13 9 0 22-24 18-47-7zM2581 149c-28-26-23-43 15-46 28-2 28-2 4 6-25 8-24 8 13 24 20 9 37 21 37 26 0 19-45 12-69-10zm49 7c0-2-7-7-16-10-8-3-12-2-9 4 6 10 25 14 25 6zM3036 148c-11-42-7-51 19-46 29 6 30 6 9-33-8-17-13-38-11-47 3-12 8-7 17 17 7 18 23 53 36 77 25 46 19 58-11 24-26-29-49-26-41 5 4 14 2 25-3 25-5 0-11-10-15-22zM3380 149c-24-43 11-66 45-29 23 26 33 25 38-2 3-14 5-9 6 15 1 43-7 46-39 12-30-32-44-32-36 0 8 30 1 32-14 4zM3503 161c17-6 17-8 3-20-16-14-22-41-8-41 20 1 52 13 52 21 0 5-8 6-17 2-15-5-16-3-5 8 21 22 14 39-15 38-23 0-24-2-10-8zM467 93c254-2 672-2 930 0 257 1 50 2-462 2-512 0-722-1-468-2z" fill="#ffffff" class="color000 svgShape"></path></g></svg></g></svg>